<svg xmlns="http://www.w3.org/2000/svg" width="887.7777777777777" height="850.0" viewBox="0 0 887.7777777777777 850.0" font-family="Arial,Helvetica,sans-serif"><rect width="887.7777777777777" height="850.0" fill="#fff"/><defs><marker id="a" viewBox="0 0 10 10" refX="9" refY="5" markerWidth="7" markerHeight="7" orient="auto-start-reverse"><path d="M1 1L9 5L1 9" fill="none" stroke="#b03a2e" stroke-width="1.4"/></marker></defs><text x="22" y="30" font-size="16" font-weight="bold" fill="#333">Bookshelf — front + side elevation · mm</text><text x="305.6" y="52.0" font-size="11" fill="#666" text-anchor="middle">front</text><text x="599.4" y="52.0" font-size="11" fill="#666" text-anchor="middle">side</text><rect x="150.0" y="60.0" width="7.0" height="700.0" fill="#e9e4d8" stroke="#333" stroke-width="1"/><rect x="454.1" y="60.0" width="7.0" height="700.0" fill="#e9e4d8" stroke="#333" stroke-width="1"/><rect x="157.0" y="753.0" width="297.1" height="7.0" fill="#e9e4d8" stroke="#333" stroke-width="1"/><rect x="157.0" y="60.0" width="297.1" height="7.0" fill="#e9e4d8" stroke="#333" stroke-width="1"/><rect x="157.0" y="67.0" width="297.1" height="686.0" fill="#e9e4d8" stroke="#333" stroke-width="1"/><rect x="157.4" y="614.4" width="296.3" height="7.0" fill="#e9e4d8" stroke="#333" stroke-width="1"/><rect x="157.4" y="475.8" width="296.3" height="7.0" fill="#e9e4d8" stroke="#333" stroke-width="1"/><rect x="157.4" y="337.2" width="296.3" height="7.0" fill="#e9e4d8" stroke="#333" stroke-width="1"/><rect x="157.4" y="198.6" width="296.3" height="7.0" fill="#e9e4d8" stroke="#333" stroke-width="1"/><rect x="541.1" y="60.0" width="116.7" height="700.0" fill="#e9e4d8" stroke="#333" stroke-width="1"/><rect x="541.1" y="60.0" width="116.7" height="700.0" fill="#e9e4d8" stroke="#333" stroke-width="1"/><rect x="541.1" y="753.0" width="116.7" height="7.0" fill="#e9e4d8" stroke="#333" stroke-width="1"/><rect x="541.1" y="60.0" width="116.7" height="7.0" fill="#e9e4d8" stroke="#333" stroke-width="1"/><rect x="541.1" y="67.0" width="1.6" height="686.0" fill="#e9e4d8" stroke="#333" stroke-width="1"/><rect x="541.1" y="614.4" width="108.9" height="7.0" fill="#e9e4d8" stroke="#333" stroke-width="1"/><rect x="541.1" y="475.8" width="108.9" height="7.0" fill="#e9e4d8" stroke="#333" stroke-width="1"/><rect x="541.1" y="337.2" width="108.9" height="7.0" fill="#e9e4d8" stroke="#333" stroke-width="1"/><rect x="541.1" y="198.6" width="108.9" height="7.0" fill="#e9e4d8" stroke="#333" stroke-width="1"/><line x1="150.0" y1="760.0" x2="110.0" y2="760.0" stroke="#666" stroke-width="0.6"/><line x1="150.0" y1="60.0" x2="110.0" y2="60.0" stroke="#666" stroke-width="0.6"/><line x1="120.0" y1="60.0" x2="120.0" y2="760.0" stroke="#b03a2e" stroke-width="1" marker-start="url(#a)" marker-end="url(#a)"/><text x="115.0" y="414.0" font-size="11" fill="#b03a2e" text-anchor="end">1800</text><line x1="150.0" y1="760.0" x2="150.0" y2="815.0" stroke="#666" stroke-width="0.6"/><line x1="461.1" y1="760.0" x2="461.1" y2="815.0" stroke="#666" stroke-width="0.6"/><line x1="150.0" y1="805.0" x2="461.1" y2="805.0" stroke="#b03a2e" stroke-width="1" marker-start="url(#a)" marker-end="url(#a)"/><text x="305.6" y="799.0" font-size="11" fill="#b03a2e" text-anchor="middle">800</text><line x1="541.1" y1="760.0" x2="541.1" y2="815.0" stroke="#666" stroke-width="0.6"/><line x1="657.8" y1="760.0" x2="657.8" y2="815.0" stroke="#666" stroke-width="0.6"/><line x1="541.1" y1="805.0" x2="657.8" y2="805.0" stroke="#b03a2e" stroke-width="1" marker-start="url(#a)" marker-end="url(#a)"/><text x="599.4" y="799.0" font-size="11" fill="#b03a2e" text-anchor="middle">300</text><line x1="461.1" y1="753.0" x2="495.1" y2="753.0" stroke="#666" stroke-width="0.6"/><line x1="461.1" y1="621.6" x2="495.1" y2="621.6" stroke="#666" stroke-width="0.6"/><line x1="495.1" y1="621.6" x2="495.1" y2="753.0" stroke="#b03a2e" stroke-width="1" marker-start="url(#a)" marker-end="url(#a)"/><text x="490.1" y="691.3" font-size="11" fill="#b03a2e" text-anchor="end">338</text><line x1="461.1" y1="614.6" x2="495.1" y2="614.6" stroke="#666" stroke-width="0.6"/><line x1="461.1" y1="482.7" x2="495.1" y2="482.7" stroke="#666" stroke-width="0.6"/><line x1="495.1" y1="482.7" x2="495.1" y2="614.6" stroke="#b03a2e" stroke-width="1" marker-start="url(#a)" marker-end="url(#a)"/><text x="490.1" y="552.6" font-size="11" fill="#b03a2e" text-anchor="end">339</text><line x1="461.1" y1="475.7" x2="495.1" y2="475.7" stroke="#666" stroke-width="0.6"/><line x1="461.1" y1="344.3" x2="495.1" y2="344.3" stroke="#666" stroke-width="0.6"/><line x1="495.1" y1="344.3" x2="495.1" y2="475.7" stroke="#b03a2e" stroke-width="1" marker-start="url(#a)" marker-end="url(#a)"/><text x="490.1" y="414.0" font-size="11" fill="#b03a2e" text-anchor="end">338</text><line x1="461.1" y1="337.3" x2="495.1" y2="337.3" stroke="#666" stroke-width="0.6"/><line x1="461.1" y1="205.4" x2="495.1" y2="205.4" stroke="#666" stroke-width="0.6"/><line x1="495.1" y1="205.4" x2="495.1" y2="337.3" stroke="#b03a2e" stroke-width="1" marker-start="url(#a)" marker-end="url(#a)"/><text x="490.1" y="275.4" font-size="11" fill="#b03a2e" text-anchor="end">339</text><line x1="461.1" y1="198.4" x2="495.1" y2="198.4" stroke="#666" stroke-width="0.6"/><line x1="461.1" y1="67.0" x2="495.1" y2="67.0" stroke="#666" stroke-width="0.6"/><line x1="495.1" y1="67.0" x2="495.1" y2="198.4" stroke="#b03a2e" stroke-width="1" marker-start="url(#a)" marker-end="url(#a)"/><text x="490.1" y="136.7" font-size="11" fill="#b03a2e" text-anchor="end">338</text><text x="513.1" y="410.0" font-size="11" fill="#666" text-anchor="start">clear bays</text></svg>