<svg xmlns="http://www.w3.org/2000/svg" width="1520.0" height="587.5" viewBox="0 0 1520.0 587.5" font-family="Arial,Helvetica,sans-serif"><rect width="1520.0" height="587.5" fill="#fff"/><defs><marker id="a" viewBox="0 0 10 10" refX="9" refY="5" markerWidth="7" markerHeight="7" orient="auto-start-reverse"><path d="M1 1L9 5L1 9" fill="none" stroke="#b03a2e" stroke-width="1.4"/></marker></defs><text x="22" y="30" font-size="16" font-weight="bold" fill="#333">Bookshelf — plan (top view) · mm</text><text x="720.0" y="58.0" font-size="11" fill="#666" text-anchor="middle">plan — front at bottom</text><rect x="175.7" y="70.0" width="1088.7" height="427.5" fill="#e9e4d8" stroke="#333" stroke-width="1"/><rect x="175.7" y="70.0" width="1088.7" height="427.5" fill="#e9e4d8" stroke="#333" stroke-width="1"/><rect x="177.1" y="98.5" width="1085.9" height="399.0" fill="#e9e4d8" stroke="#333" stroke-width="1"/><rect x="177.1" y="98.5" width="1085.9" height="399.0" fill="#e9e4d8" stroke="#333" stroke-width="1"/><rect x="177.1" y="98.5" width="1085.9" height="399.0" fill="#e9e4d8" stroke="#333" stroke-width="1"/><rect x="177.1" y="98.5" width="1085.9" height="399.0" fill="#e9e4d8" stroke="#333" stroke-width="1"/><rect x="150.0" y="70.0" width="25.7" height="427.5" fill="#e9e4d8" stroke="#333" stroke-width="1"/><rect x="1264.4" y="70.0" width="25.7" height="427.5" fill="#e9e4d8" stroke="#333" stroke-width="1"/><rect x="175.7" y="491.8" width="1088.7" height="5.7" fill="#e9e4d8" stroke="#333" stroke-width="1"/><line x1="150.0" y1="497.5" x2="150.0" y2="552.5" stroke="#666" stroke-width="0.6"/><line x1="1290.0" y1="497.5" x2="1290.0" y2="552.5" stroke="#666" stroke-width="0.6"/><line x1="150.0" y1="542.5" x2="1290.0" y2="542.5" stroke="#b03a2e" stroke-width="1" marker-start="url(#a)" marker-end="url(#a)"/><text x="720.0" y="536.5" font-size="11" fill="#b03a2e" text-anchor="middle">800</text><line x1="150.0" y1="70.0" x2="110.0" y2="70.0" stroke="#666" stroke-width="0.6"/><line x1="150.0" y1="497.5" x2="110.0" y2="497.5" stroke="#666" stroke-width="0.6"/><line x1="120.0" y1="70.0" x2="120.0" y2="497.5" stroke="#b03a2e" stroke-width="1" marker-start="url(#a)" marker-end="url(#a)"/><text x="115.0" y="287.8" font-size="11" fill="#b03a2e" text-anchor="end">300</text></svg>