<svg xmlns="http://www.w3.org/2000/svg" width="985.0" height="850.0" viewBox="0 0 985.0 850.0" font-family="Arial,Helvetica,sans-serif"><rect width="985.0" height="850.0" fill="#fff"/><defs><marker id="a" viewBox="0 0 10 10" refX="9" refY="5" markerWidth="7" markerHeight="7" orient="auto-start-reverse"><path d="M1 1L9 5L1 9" fill="none" stroke="#b03a2e" stroke-width="1.4"/></marker></defs><text x="22" y="30" font-size="16" font-weight="bold" fill="#333">Wardrobe — front + side elevation · mm</text><text x="325.0" y="52.0" font-size="11" fill="#666" text-anchor="middle">front</text><text x="667.5" y="52.0" font-size="11" fill="#666" text-anchor="middle">side</text><rect x="150.0" y="60.0" width="5.2" height="700.0" fill="#e9e4d8" stroke="#333" stroke-width="1"/><rect x="494.8" y="60.0" width="5.2" height="700.0" fill="#e9e4d8" stroke="#333" stroke-width="1"/><rect x="155.2" y="754.8" width="339.5" height="5.2" fill="#e9e4d8" stroke="#333" stroke-width="1"/><rect x="155.2" y="60.0" width="339.5" height="5.2" fill="#e9e4d8" stroke="#333" stroke-width="1"/><rect x="155.2" y="65.2" width="339.5" height="689.5" fill="#e9e4d8" stroke="#333" stroke-width="1"/><rect x="322.4" y="65.2" width="5.2" height="689.5" fill="#e9e4d8" stroke="#333" stroke-width="1"/><rect x="155.5" y="132.9" width="166.5" height="5.2" fill="#e9e4d8" stroke="#333" stroke-width="1"/><line x1="161.1" y1="223.3" x2="316.5" y2="223.3" stroke="#1f6feb" stroke-width="3" stroke-linecap="round"/><rect x="327.9" y="639.0" width="166.5" height="5.2" fill="#e9e4d8" stroke="#333" stroke-width="1"/><rect x="327.9" y="523.2" width="166.5" height="5.2" fill="#e9e4d8" stroke="#333" stroke-width="1"/><rect x="327.9" y="407.4" width="166.5" height="5.2" fill="#e9e4d8" stroke="#333" stroke-width="1"/><rect x="327.9" y="291.6" width="166.5" height="5.2" fill="#e9e4d8" stroke="#333" stroke-width="1"/><rect x="327.9" y="175.8" width="166.5" height="5.2" fill="#e9e4d8" stroke="#333" stroke-width="1"/><rect x="150.9" y="66.1" width="173.7" height="687.8" fill="#f6f3ec" stroke="#333" stroke-width="1"/><rect x="325.4" y="66.1" width="173.7" height="687.8" fill="#f6f3ec" stroke="#333" stroke-width="1"/><rect x="580.0" y="60.0" width="175.0" height="700.0" fill="#e9e4d8" stroke="#333" stroke-width="1"/><rect x="580.0" y="60.0" width="175.0" height="700.0" fill="#e9e4d8" stroke="#333" stroke-width="1"/><rect x="580.0" y="754.8" width="175.0" height="5.2" fill="#e9e4d8" stroke="#333" stroke-width="1"/><rect x="580.0" y="60.0" width="175.0" height="5.2" fill="#e9e4d8" stroke="#333" stroke-width="1"/><rect x="580.0" y="65.2" width="1.2" height="689.5" fill="#e9e4d8" stroke="#333" stroke-width="1"/><rect x="580.0" y="65.2" width="175.0" height="689.5" fill="#e9e4d8" stroke="#333" stroke-width="1"/><rect x="580.0" y="132.9" width="169.2" height="5.2" fill="#e9e4d8" stroke="#333" stroke-width="1"/><rect x="580.0" y="639.0" width="169.2" height="5.2" fill="#e9e4d8" stroke="#333" stroke-width="1"/><rect x="580.0" y="523.2" width="169.2" height="5.2" fill="#e9e4d8" stroke="#333" stroke-width="1"/><rect x="580.0" y="407.4" width="169.2" height="5.2" fill="#e9e4d8" stroke="#333" stroke-width="1"/><rect x="580.0" y="291.6" width="169.2" height="5.2" fill="#e9e4d8" stroke="#333" stroke-width="1"/><rect x="580.0" y="175.8" width="169.2" height="5.2" fill="#e9e4d8" stroke="#333" stroke-width="1"/><rect x="755.0" y="66.1" width="5.2" height="687.8" fill="#f6f3ec" stroke="#333" stroke-width="1"/><rect x="755.0" y="66.1" width="5.2" height="687.8" fill="#f6f3ec" stroke="#333" stroke-width="1"/><line x1="150.0" y1="760.0" x2="110.0" y2="760.0" stroke="#666" stroke-width="0.6"/><line x1="150.0" y1="60.0" x2="110.0" y2="60.0" stroke="#666" stroke-width="0.6"/><line x1="120.0" y1="60.0" x2="120.0" y2="760.0" stroke="#b03a2e" stroke-width="1" marker-start="url(#a)" marker-end="url(#a)"/><text x="115.0" y="414.0" font-size="11" fill="#b03a2e" text-anchor="end">2400</text><line x1="150.0" y1="760.0" x2="150.0" y2="815.0" stroke="#666" stroke-width="0.6"/><line x1="500.0" y1="760.0" x2="500.0" y2="815.0" stroke="#666" stroke-width="0.6"/><line x1="150.0" y1="805.0" x2="500.0" y2="805.0" stroke="#b03a2e" stroke-width="1" marker-start="url(#a)" marker-end="url(#a)"/><text x="325.0" y="799.0" font-size="11" fill="#b03a2e" text-anchor="middle">1200</text><line x1="580.0" y1="760.0" x2="580.0" y2="815.0" stroke="#666" stroke-width="0.6"/><line x1="755.0" y1="760.0" x2="755.0" y2="815.0" stroke="#666" stroke-width="0.6"/><line x1="580.0" y1="805.0" x2="755.0" y2="805.0" stroke="#b03a2e" stroke-width="1" marker-start="url(#a)" marker-end="url(#a)"/><text x="667.5" y="799.0" font-size="11" fill="#b03a2e" text-anchor="middle">600</text><line x1="500.0" y1="754.8" x2="534.0" y2="754.8" stroke="#666" stroke-width="0.6"/><line x1="500.0" y1="644.2" x2="534.0" y2="644.2" stroke="#666" stroke-width="0.6"/><line x1="534.0" y1="644.2" x2="534.0" y2="754.8" stroke="#b03a2e" stroke-width="1" marker-start="url(#a)" marker-end="url(#a)"/><text x="529.0" y="703.5" font-size="11" fill="#b03a2e" text-anchor="end">379</text><line x1="500.0" y1="639.0" x2="534.0" y2="639.0" stroke="#666" stroke-width="0.6"/><line x1="500.0" y1="528.4" x2="534.0" y2="528.4" stroke="#666" stroke-width="0.6"/><line x1="534.0" y1="528.4" x2="534.0" y2="639.0" stroke="#b03a2e" stroke-width="1" marker-start="url(#a)" marker-end="url(#a)"/><text x="529.0" y="587.7" font-size="11" fill="#b03a2e" text-anchor="end">379</text><line x1="500.0" y1="523.2" x2="534.0" y2="523.2" stroke="#666" stroke-width="0.6"/><line x1="500.0" y1="412.6" x2="534.0" y2="412.6" stroke="#666" stroke-width="0.6"/><line x1="534.0" y1="412.6" x2="534.0" y2="523.2" stroke="#b03a2e" stroke-width="1" marker-start="url(#a)" marker-end="url(#a)"/><text x="529.0" y="471.9" font-size="11" fill="#b03a2e" text-anchor="end">379</text><line x1="500.0" y1="407.4" x2="534.0" y2="407.4" stroke="#666" stroke-width="0.6"/><line x1="500.0" y1="296.8" x2="534.0" y2="296.8" stroke="#666" stroke-width="0.6"/><line x1="534.0" y1="296.8" x2="534.0" y2="407.4" stroke="#b03a2e" stroke-width="1" marker-start="url(#a)" marker-end="url(#a)"/><text x="529.0" y="356.1" font-size="11" fill="#b03a2e" text-anchor="end">379</text><line x1="500.0" y1="291.6" x2="534.0" y2="291.6" stroke="#666" stroke-width="0.6"/><line x1="500.0" y1="181.0" x2="534.0" y2="181.0" stroke="#666" stroke-width="0.6"/><line x1="534.0" y1="181.0" x2="534.0" y2="291.6" stroke="#b03a2e" stroke-width="1" marker-start="url(#a)" marker-end="url(#a)"/><text x="529.0" y="240.3" font-size="11" fill="#b03a2e" text-anchor="end">379</text><line x1="500.0" y1="175.8" x2="534.0" y2="175.8" stroke="#666" stroke-width="0.6"/><line x1="500.0" y1="138.2" x2="534.0" y2="138.2" stroke="#666" stroke-width="0.6"/><line x1="534.0" y1="138.2" x2="534.0" y2="175.8" stroke="#b03a2e" stroke-width="1" marker-start="url(#a)" marker-end="url(#a)"/><text x="529.0" y="161.0" font-size="11" fill="#b03a2e" text-anchor="end">129</text><line x1="500.0" y1="132.9" x2="534.0" y2="132.9" stroke="#666" stroke-width="0.6"/><line x1="500.0" y1="65.2" x2="534.0" y2="65.2" stroke="#666" stroke-width="0.6"/><line x1="534.0" y1="65.2" x2="534.0" y2="132.9" stroke="#b03a2e" stroke-width="1" marker-start="url(#a)" marker-end="url(#a)"/><text x="529.0" y="103.1" font-size="11" fill="#b03a2e" text-anchor="end">232</text><text x="552.0" y="410.0" font-size="11" fill="#666" text-anchor="start">clear bays</text></svg>