<svg xmlns="http://www.w3.org/2000/svg" width="1520.0" height="730.0" viewBox="0 0 1520.0 730.0" font-family="Arial,Helvetica,sans-serif"><rect width="1520.0" height="730.0" fill="#fff"/><defs><marker id="a" viewBox="0 0 10 10" refX="9" refY="5" markerWidth="7" markerHeight="7" orient="auto-start-reverse"><path d="M1 1L9 5L1 9" fill="none" stroke="#b03a2e" stroke-width="1.4"/></marker></defs><text x="22" y="30" font-size="16" font-weight="bold" fill="#333">Wardrobe — plan (top view) · mm</text><text x="720.0" y="58.0" font-size="11" fill="#666" text-anchor="middle">plan — front at bottom</text><rect x="167.1" y="70.0" width="1105.8" height="570.0" fill="#e9e4d8" stroke="#333" stroke-width="1"/><rect x="167.1" y="70.0" width="1105.8" height="570.0" fill="#e9e4d8" stroke="#333" stroke-width="1"/><rect x="168.1" y="89.0" width="542.4" height="551.0" fill="#e9e4d8" stroke="#333" stroke-width="1"/><rect x="729.5" y="89.0" width="542.4" height="551.0" fill="#e9e4d8" stroke="#333" stroke-width="1"/><rect x="729.5" y="89.0" width="542.4" height="551.0" fill="#e9e4d8" stroke="#333" stroke-width="1"/><rect x="729.5" y="89.0" width="542.4" height="551.0" fill="#e9e4d8" stroke="#333" stroke-width="1"/><rect x="729.5" y="89.0" width="542.4" height="551.0" fill="#e9e4d8" stroke="#333" stroke-width="1"/><rect x="729.5" y="89.0" width="542.4" height="551.0" fill="#e9e4d8" stroke="#333" stroke-width="1"/><line x1="186.1" y1="316.0" x2="692.4" y2="316.0" stroke="#1f6feb" stroke-width="3" stroke-linecap="round"/><rect x="150.0" y="70.0" width="17.1" height="570.0" fill="#e9e4d8" stroke="#333" stroke-width="1"/><rect x="1272.9" y="70.0" width="17.1" height="570.0" fill="#e9e4d8" stroke="#333" stroke-width="1"/><rect x="711.4" y="70.0" width="17.1" height="570.0" fill="#e9e4d8" stroke="#333" stroke-width="1"/><rect x="152.8" y="52.9" width="565.7" height="17.1" fill="#f6f3ec" stroke="#333" stroke-width="1"/><rect x="721.4" y="52.9" width="565.7" height="17.1" fill="#f6f3ec" stroke="#333" stroke-width="1"/><rect x="167.1" y="636.2" width="1105.8" height="3.8" fill="#e9e4d8" stroke="#333" stroke-width="1"/><line x1="150.0" y1="640.0" x2="150.0" y2="695.0" stroke="#666" stroke-width="0.6"/><line x1="1290.0" y1="640.0" x2="1290.0" y2="695.0" stroke="#666" stroke-width="0.6"/><line x1="150.0" y1="685.0" x2="1290.0" y2="685.0" stroke="#b03a2e" stroke-width="1" marker-start="url(#a)" marker-end="url(#a)"/><text x="720.0" y="679.0" font-size="11" fill="#b03a2e" text-anchor="middle">1200</text><line x1="150.0" y1="70.0" x2="110.0" y2="70.0" stroke="#666" stroke-width="0.6"/><line x1="150.0" y1="640.0" x2="110.0" y2="640.0" stroke="#666" stroke-width="0.6"/><line x1="120.0" y1="70.0" x2="120.0" y2="640.0" stroke="#b03a2e" stroke-width="1" marker-start="url(#a)" marker-end="url(#a)"/><text x="115.0" y="359.0" font-size="11" fill="#b03a2e" text-anchor="end">600</text></svg>