<svg xmlns="http://www.w3.org/2000/svg" width="1600.0" height="492.0" viewBox="0 0 1600.0 492.0" font-family="Arial,Helvetica,sans-serif"><rect width="1600.0" height="492.0" fill="#fff"/><defs><marker id="a" viewBox="0 0 10 10" refX="9" refY="5" markerWidth="7" markerHeight="7" orient="auto-start-reverse"><path d="M1 1L9 5L1 9" fill="none" stroke="#b03a2e" stroke-width="1.4"/></marker></defs><text x="22" y="30" font-size="16" font-weight="bold" fill="#333">DiningTable — front + side elevation · mm</text><text x="514.8" y="52.0" font-size="11" fill="#666" text-anchor="middle">front</text><text x="1164.8" y="52.0" font-size="11" fill="#666" text-anchor="middle">side</text><rect x="150.0" y="60.0" width="729.6" height="13.7" fill="#e9e4d8" stroke="#333" stroke-width="1"/><rect x="195.6" y="73.7" width="36.5" height="328.3" fill="#e9e4d8" stroke="#333" stroke-width="1"/><rect x="195.6" y="73.7" width="36.5" height="328.3" fill="#e9e4d8" stroke="#333" stroke-width="1"/><rect x="797.5" y="73.7" width="36.5" height="328.3" fill="#e9e4d8" stroke="#333" stroke-width="1"/><rect x="797.5" y="73.7" width="36.5" height="328.3" fill="#e9e4d8" stroke="#333" stroke-width="1"/><rect x="232.1" y="82.8" width="565.4" height="63.8" fill="#e9e4d8" stroke="#333" stroke-width="1"/><rect x="232.1" y="82.8" width="565.4" height="63.8" fill="#e9e4d8" stroke="#333" stroke-width="1"/><rect x="195.6" y="82.8" width="9.1" height="63.8" fill="#e9e4d8" stroke="#333" stroke-width="1"/><rect x="824.9" y="82.8" width="9.1" height="63.8" fill="#e9e4d8" stroke="#333" stroke-width="1"/><rect x="959.6" y="60.0" width="410.4" height="13.7" fill="#e9e4d8" stroke="#333" stroke-width="1"/><rect x="1005.2" y="73.7" width="36.5" height="328.3" fill="#e9e4d8" stroke="#333" stroke-width="1"/><rect x="1287.9" y="73.7" width="36.5" height="328.3" fill="#e9e4d8" stroke="#333" stroke-width="1"/><rect x="1005.2" y="73.7" width="36.5" height="328.3" fill="#e9e4d8" stroke="#333" stroke-width="1"/><rect x="1287.9" y="73.7" width="36.5" height="328.3" fill="#e9e4d8" stroke="#333" stroke-width="1"/><rect x="1005.2" y="82.8" width="9.1" height="63.8" fill="#e9e4d8" stroke="#333" stroke-width="1"/><rect x="1287.9" y="82.8" width="9.1" height="63.8" fill="#e9e4d8" stroke="#333" stroke-width="1"/><rect x="1041.7" y="82.8" width="246.2" height="63.8" fill="#e9e4d8" stroke="#333" stroke-width="1"/><rect x="1041.7" y="82.8" width="246.2" height="63.8" fill="#e9e4d8" stroke="#333" stroke-width="1"/><line x1="150.0" y1="402.0" x2="110.0" y2="402.0" stroke="#666" stroke-width="0.6"/><line x1="150.0" y1="60.0" x2="110.0" y2="60.0" stroke="#666" stroke-width="0.6"/><line x1="120.0" y1="60.0" x2="120.0" y2="402.0" stroke="#b03a2e" stroke-width="1" marker-start="url(#a)" marker-end="url(#a)"/><text x="115.0" y="235.0" font-size="11" fill="#b03a2e" text-anchor="end">750</text><line x1="150.0" y1="402.0" x2="150.0" y2="457.0" stroke="#666" stroke-width="0.6"/><line x1="879.6" y1="402.0" x2="879.6" y2="457.0" stroke="#666" stroke-width="0.6"/><line x1="150.0" y1="447.0" x2="879.6" y2="447.0" stroke="#b03a2e" stroke-width="1" marker-start="url(#a)" marker-end="url(#a)"/><text x="514.8" y="441.0" font-size="11" fill="#b03a2e" text-anchor="middle">1600</text><line x1="959.6" y1="402.0" x2="959.6" y2="457.0" stroke="#666" stroke-width="0.6"/><line x1="1370.0" y1="402.0" x2="1370.0" y2="457.0" stroke="#666" stroke-width="0.6"/><line x1="959.6" y1="447.0" x2="1370.0" y2="447.0" stroke="#b03a2e" stroke-width="1" marker-start="url(#a)" marker-end="url(#a)"/><text x="1164.8" y="441.0" font-size="11" fill="#b03a2e" text-anchor="middle">900</text><line x1="879.6" y1="402.0" x2="913.6" y2="402.0" stroke="#666" stroke-width="0.6"/><line x1="879.6" y1="73.7" x2="913.6" y2="73.7" stroke="#666" stroke-width="0.6"/><line x1="913.6" y1="73.7" x2="913.6" y2="402.0" stroke="#b03a2e" stroke-width="1" marker-start="url(#a)" marker-end="url(#a)"/><text x="908.6" y="241.8" font-size="11" fill="#b03a2e" text-anchor="end">720</text><text x="931.6" y="231.0" font-size="11" fill="#666" text-anchor="start">clear bays</text></svg>