<svg xmlns="http://www.w3.org/2000/svg" width="1520.0" height="801.25" viewBox="0 0 1520.0 801.25" font-family="Arial,Helvetica,sans-serif"><rect width="1520.0" height="801.25" fill="#fff"/><defs><marker id="a" viewBox="0 0 10 10" refX="9" refY="5" markerWidth="7" markerHeight="7" orient="auto-start-reverse"><path d="M1 1L9 5L1 9" fill="none" stroke="#b03a2e" stroke-width="1.4"/></marker></defs><text x="22" y="30" font-size="16" font-weight="bold" fill="#333">DiningTable — plan (top view) · mm</text><text x="720.0" y="58.0" font-size="11" fill="#666" text-anchor="middle">plan — front at bottom</text><rect x="150.0" y="70.0" width="1140.0" height="641.2" fill="#e9e4d8" stroke="#333" stroke-width="1"/><rect x="278.2" y="625.8" width="883.5" height="14.2" fill="#e9e4d8" stroke="#333" stroke-width="1"/><rect x="278.2" y="184.0" width="883.5" height="14.2" fill="#e9e4d8" stroke="#333" stroke-width="1"/><rect x="221.2" y="198.2" width="14.2" height="384.8" fill="#e9e4d8" stroke="#333" stroke-width="1"/><rect x="1204.5" y="198.2" width="14.2" height="384.8" fill="#e9e4d8" stroke="#333" stroke-width="1"/><rect x="221.2" y="583.0" width="57.0" height="57.0" fill="#e9e4d8" stroke="#333" stroke-width="1"/><rect x="221.2" y="141.2" width="57.0" height="57.0" fill="#e9e4d8" stroke="#333" stroke-width="1"/><rect x="1161.8" y="583.0" width="57.0" height="57.0" fill="#e9e4d8" stroke="#333" stroke-width="1"/><rect x="1161.8" y="141.2" width="57.0" height="57.0" fill="#e9e4d8" stroke="#333" stroke-width="1"/><line x1="150.0" y1="711.2" x2="150.0" y2="766.2" stroke="#666" stroke-width="0.6"/><line x1="1290.0" y1="711.2" x2="1290.0" y2="766.2" stroke="#666" stroke-width="0.6"/><line x1="150.0" y1="756.2" x2="1290.0" y2="756.2" stroke="#b03a2e" stroke-width="1" marker-start="url(#a)" marker-end="url(#a)"/><text x="720.0" y="750.2" font-size="11" fill="#b03a2e" text-anchor="middle">1600</text><line x1="150.0" y1="70.0" x2="110.0" y2="70.0" stroke="#666" stroke-width="0.6"/><line x1="150.0" y1="711.2" x2="110.0" y2="711.2" stroke="#666" stroke-width="0.6"/><line x1="120.0" y1="70.0" x2="120.0" y2="711.2" stroke="#b03a2e" stroke-width="1" marker-start="url(#a)" marker-end="url(#a)"/><text x="115.0" y="394.6" font-size="11" fill="#b03a2e" text-anchor="end">900</text></svg>